<svg width="25" height="24" viewBox="0 0 25 24" fill="none" xmlns="http://www.w3.org/2000/svg">
<path d="M23.0391 11.9551H1.96091C1.13081 11.9551 0.455322 12.6306 0.455322 13.4607C0.455322 14.2908 1.13081 14.9662 1.96091 14.9662H23.0391C23.8692 14.9662 24.5447 14.2908 24.5447 13.4607C24.5447 12.6306 23.8692 11.9551 23.0391 11.9551Z" fill="#888B97"/>
<path d="M23.1775 13.9814C22.9055 13.9051 22.6325 14.0597 22.5572 14.3267L22.5181 14.4642H2.48276L2.44263 14.3267C2.36735 14.0597 2.09234 13.9071 1.82233 13.9814C1.55532 14.0577 1.40175 14.3357 1.47807 14.6017L2.86118 19.4436C3.28975 20.9442 4.67894 21.9921 6.23872 21.9921H18.7601C20.3209 21.9921 21.7091 20.9442 22.1377 19.4436L23.5208 14.6017C23.5981 14.3357 23.4435 14.0577 23.1775 13.9814ZM6.23971 19.9846C5.57123 19.9846 4.97502 19.5359 4.79233 18.8925L4.14093 16.6101C4.06466 16.3431 4.21922 16.0661 4.48519 15.9898C4.75417 15.9135 5.03021 16.0691 5.10549 16.3351L5.75689 18.6175C5.81913 18.8313 6.01684 18.9819 6.23966 18.9819C6.51669 18.9819 6.74154 19.2067 6.74154 19.4838C6.74159 19.7608 6.51674 19.9846 6.23971 19.9846Z" fill="#888B97"/>
<path d="M7.20341 21.0413C6.95551 20.9199 6.65538 21.0173 6.5299 21.2662L5.52619 23.2737C5.40273 23.5216 5.50309 23.8227 5.75104 23.9472C5.82429 23.9833 5.90061 24.0004 5.97589 24.0004C6.15957 24.0004 6.33624 23.899 6.42455 23.7224L7.42826 21.7149C7.55172 21.4669 7.45132 21.1658 7.20341 21.0413Z" fill="#888B97"/>
<path d="M19.4738 23.2745L18.4701 21.2671C18.3456 21.0181 18.0445 20.9188 17.7966 21.0422C17.5487 21.1667 17.4483 21.4678 17.5717 21.7157L18.5754 23.7232C18.6637 23.8988 18.8404 24.0002 19.0241 24.0002C19.0994 24.0002 19.1756 23.9832 19.2489 23.9481C19.4969 23.8236 19.5972 23.5224 19.4738 23.2745Z" fill="#888B97"/>
<path d="M20.6151 0C20.1032 0 19.6214 0.199725 19.2591 0.5621L17.6662 2.15501C17.4705 2.35073 17.4705 2.66893 17.6662 2.86465C17.8619 3.06038 18.1801 3.06038 18.3758 2.86465L19.9687 1.27274C20.1403 1.10011 20.3702 1.00474 20.6201 1.00474C21.124 1.00474 21.5335 1.41426 21.5335 1.91811V12.4572C21.5335 12.7342 21.7583 12.9591 22.0354 12.9591C22.3124 12.9591 22.5372 12.7342 22.5382 12.4562V1.91713C22.5383 0.860206 21.6791 0 20.6151 0Z" fill="#888B97"/>
<path d="M18.8776 2.65706L17.8739 1.65335C17.7594 1.53892 17.5998 1.48571 17.4372 1.51281L14.9279 1.92435C14.7433 1.95447 14.5917 2.08493 14.5325 2.26161C14.4733 2.43828 14.5184 2.63499 14.6489 2.76847L17.6601 5.86997C17.7555 5.96934 17.8869 6.02255 18.0194 6.02255C18.0666 6.02255 18.1148 6.01554 18.1619 6.00147C18.3406 5.9493 18.4761 5.80175 18.5122 5.61906L19.0141 3.10977C19.0472 2.94613 18.996 2.77647 18.8776 2.65706Z" fill="#888B97"/>
<path d="M12.3525 6.08039C12.1567 5.88466 11.8385 5.88466 11.6428 6.08039L10.6391 7.0841C10.4434 7.27982 10.4434 7.59802 10.6391 7.79374C10.7375 7.89109 10.8659 7.9403 10.9944 7.9403C11.1229 7.9403 11.2514 7.89114 11.3488 7.79374L12.3525 6.79004C12.5482 6.59426 12.5482 6.27611 12.3525 6.08039Z" fill="#888B97"/>
<path d="M14.3599 8.0882C14.1642 7.89247 13.846 7.89247 13.6503 8.0882L12.6466 9.09191C12.4508 9.28764 12.4508 9.60583 12.6466 9.80156C12.7449 9.8989 12.8734 9.94812 13.0019 9.94812C13.1304 9.94812 13.2588 9.89895 13.3562 9.80156L14.3599 8.79785C14.5556 8.60212 14.5556 8.28393 14.3599 8.0882Z" fill="#888B97"/>
<path d="M15.3636 5.07648C15.1678 4.88076 14.8496 4.88076 14.6539 5.07648L13.6502 6.08019C13.4545 6.27592 13.4545 6.59411 13.6502 6.78984C13.7486 6.88718 13.877 6.9364 14.0055 6.9364C14.134 6.9364 14.2625 6.88723 14.3599 6.78984L15.3636 5.78613C15.5593 5.5904 15.5593 5.27221 15.3636 5.07648Z" fill="#888B97"/>
</svg>
