<svg width="24" height="24" viewBox="0 0 24 24" fill="none" xmlns="http://www.w3.org/2000/svg">
<path d="M23.3837 6.62857L13.357 0.379291C12.5309 -0.130832 11.4664 -0.125616 10.6453 0.390245L0.608102 6.63378C-0.0151537 7.0255 -0.187369 7.82511 0.222668 8.41974C0.633251 9.01436 1.47082 9.17918 2.09462 8.78694L12.0104 2.61852L21.9142 8.79216C22.1416 8.93247 22.3958 8.99871 22.6473 8.99871C23.0912 8.99871 23.5242 8.79164 23.7828 8.41087C24.1885 7.81312 24.0092 7.01611 23.3837 6.62857Z" fill="#888B97"/>
<path d="M20.2106 14.7531C20.134 14.3031 19.7524 13.9702 19.3074 13.9702H18.796L18.6017 11.8962C18.3941 9.67813 16.5984 8 14.4247 8H9.57604C7.40184 8 5.60666 9.67865 5.39863 11.8962L5.2048 13.9702H4.69283C4.24734 13.9702 3.86628 14.3031 3.78865 14.7531L3.02755 19.1768C2.93317 19.7251 3.08438 20.2895 3.43347 20.715C3.76937 21.1249 4.26408 21.3694 4.78163 21.3876V22.1221C4.78163 23.162 5.59448 24 6.60979 24H7.18721C8.2015 24 9.02653 23.162 9.02653 22.1221V21.3996H14.9793V22.1206C14.9793 23.1609 15.7978 24 16.8121 24H17.39C18.4043 24 19.2237 23.1609 19.2237 22.1206V21.3876C19.7413 21.3694 20.2329 21.127 20.5678 20.7176C20.9169 20.291 21.0661 19.7298 20.9727 19.1804L20.2106 14.7531ZM6.39059 19.6933C5.53461 19.6933 4.84049 18.9822 4.84049 18.1036C4.84049 17.225 5.53461 16.5134 6.39059 16.5134C7.24708 16.5134 7.94171 17.2245 7.94171 18.1036C7.94171 18.9822 7.24708 19.6933 6.39059 19.6933ZM6.77723 13.9702L6.95634 12.057C7.08674 10.666 8.21266 9.61831 9.57604 9.61831H9.85562V10.2196C9.85562 10.7414 10.26 11.157 10.7684 11.157H13.2324C13.7408 11.157 14.1523 10.7414 14.1523 10.2196V9.61883H14.4247C15.7881 9.61883 16.914 10.6665 17.0439 12.0575L17.2236 13.9707L6.77723 13.9702ZM17.6082 19.6933C16.7522 19.6933 16.0581 18.9822 16.0581 18.1036C16.0581 17.225 16.7522 16.5134 17.6082 16.5134C18.4647 16.5134 19.1593 17.2245 19.1593 18.1036C19.1593 18.9822 18.4647 19.6933 17.6082 19.6933Z" fill="#888B97"/>
</svg>
