<svg width="16" height="20" viewBox="0 0 16 20" fill="none" xmlns="http://www.w3.org/2000/svg">
<path d="M4.38443 0.479124C4.90952 0.320805 5.47301 0.347107 5.98107 0.553653C6.48914 0.760198 6.91114 1.13453 7.17683 1.61432L7.26683 1.79312L8.06003 3.55832C8.30112 4.09411 8.37937 4.68894 8.28507 5.26885C8.19077 5.84876 7.92806 6.38814 7.52962 6.81992L7.37122 6.97832L6.11843 8.14592C5.89283 8.35952 6.06203 9.18633 6.87923 10.5999C7.61243 11.8719 8.21123 12.4659 8.50403 12.4983H8.55563L8.61922 12.4863L11.0792 11.7339C11.4098 11.6325 11.7627 11.6285 12.0955 11.7224C12.4283 11.8162 12.7271 12.004 12.956 12.2631L13.0664 12.4011L14.6936 14.6571C15.0129 15.0992 15.1722 15.6368 15.1451 16.1814C15.1181 16.7261 14.9064 17.2453 14.5448 17.6535L14.3984 17.8047L13.7468 18.4215C13.1628 18.9746 12.4322 19.3484 11.6419 19.4984C10.8516 19.6483 10.0349 19.5682 9.28883 19.2675C6.96683 18.3315 4.85723 16.1931 2.94083 12.8739C1.02083 9.54633 0.222826 6.64592 0.579226 4.16192C0.687179 3.41091 0.996558 2.70316 1.47449 2.11388C1.95243 1.52459 2.58107 1.07578 3.29363 0.815124L3.52523 0.738324L4.38443 0.479124Z" fill="white"/>
</svg>
