<svg width="14" height="14" viewBox="0 0 14 14" fill="none" xmlns="http://www.w3.org/2000/svg">
<path d="M11.8001 3.79999H1.8001V3.39999L10.6001 2.69599V3.39999H11.8001V2.19999C11.8001 1.31999 11.0873 0.702389 10.2169 0.826389L2.1841 1.97359C1.3129 2.09839 0.600098 2.91999 0.600098 3.79999V11.8C0.600098 12.2243 0.768669 12.6313 1.06873 12.9314C1.36878 13.2314 1.77575 13.4 2.2001 13.4H11.8001C12.2244 13.4 12.6314 13.2314 12.9315 12.9314C13.2315 12.6313 13.4001 12.2243 13.4001 11.8V5.39999C13.4001 4.97564 13.2315 4.56868 12.9315 4.26862C12.6314 3.96856 12.2244 3.79999 11.8001 3.79999ZM10.6001 9.40479C10.4425 9.40474 10.2864 9.37364 10.1408 9.31326C9.99513 9.25289 9.86283 9.16442 9.7514 9.05292C9.63997 8.94141 9.5516 8.80905 9.49132 8.66339C9.43104 8.51773 9.40004 8.36163 9.4001 8.20399C9.40015 8.04635 9.43125 7.89027 9.49163 7.74465C9.552 7.59903 9.64046 7.46673 9.75197 7.3553C9.86347 7.24387 9.99583 7.15549 10.1415 7.09521C10.2872 7.03493 10.4433 7.00394 10.6009 7.00399C10.9193 7.0041 11.2245 7.13067 11.4496 7.35586C11.6746 7.58105 11.801 7.88642 11.8009 8.20479C11.8008 8.52316 11.6742 8.82844 11.449 9.05348C11.2238 9.27853 10.9185 9.4049 10.6001 9.40479Z" fill="#047857"/>
</svg>
