<svg width="12" height="13" viewBox="0 0 12 13" fill="none" xmlns="http://www.w3.org/2000/svg">
<path d="M12.0001 6.22126V12C11.9999 12.1812 11.9508 12.3591 11.8579 12.5147C11.765 12.6703 11.6318 12.7979 11.4723 12.8839C11.3278 12.9622 11.1657 13.0021 11.0014 12.9999H7.99788C7.86527 12.9999 7.73809 12.9473 7.64433 12.8535C7.55056 12.7597 7.49788 12.6326 7.49788 12.4999V9.49951C7.49788 9.3669 7.4452 9.23972 7.35143 9.14596C7.25766 9.05219 7.13049 8.99951 6.99788 8.99951H4.99788C4.86527 8.99951 4.73809 9.05219 4.64433 9.14596C4.55056 9.23972 4.49788 9.3669 4.49788 9.49951V12.4999C4.49788 12.6326 4.4452 12.7597 4.35143 12.8535C4.25766 12.9473 4.13049 12.9999 3.99788 12.9999H1.00019C0.858424 13.0003 0.718217 12.9704 0.588964 12.9121C0.459711 12.8539 0.344399 12.7687 0.250755 12.6623C0.0863675 12.4721 -0.00279731 12.2285 6.69211e-05 11.9771V6.2212C0.000175878 6.08187 0.0293408 5.9441 0.085699 5.81669C0.142057 5.68927 0.22437 5.57501 0.327379 5.4812L5.32694 0.935385C5.51059 0.767169 5.75059 0.673851 5.99964 0.673828C6.24868 0.673805 6.4887 0.767078 6.67238 0.93526L11.6728 5.48126C11.7758 5.57509 11.8581 5.68935 11.9144 5.81677C11.9708 5.94418 11.9999 6.08194 12.0001 6.22126Z" fill="#1D4ED8"/>
</svg>
