<svg width="18" height="19" viewBox="0 0 18 19" fill="none" xmlns="http://www.w3.org/2000/svg">
<path d="M18.0001 8.83189V17.5C17.9999 17.7719 17.9263 18.0386 17.7869 18.272C17.6475 18.5054 17.4477 18.6968 17.2085 18.8259C16.9917 18.9432 16.7486 19.0031 16.5022 18.9999H11.9968C11.7979 18.9999 11.6071 18.9209 11.4665 18.7803C11.3258 18.6396 11.2468 18.4488 11.2468 18.2499V13.7493C11.2468 13.5504 11.1678 13.3596 11.0271 13.2189C10.8865 13.0783 10.6957 12.9993 10.4968 12.9993H7.49682C7.29791 12.9993 7.10714 13.0783 6.96649 13.2189C6.82584 13.3596 6.74682 13.5504 6.74682 13.7493V18.2499C6.74682 18.4488 6.6678 18.6396 6.52715 18.7803C6.3865 18.9209 6.19573 18.9999 5.99682 18.9999H1.50029C1.28764 19.0005 1.07732 18.9556 0.883446 18.8682C0.689567 18.7808 0.516599 18.653 0.376132 18.4934C0.129551 18.2082 -0.00419596 17.8427 0.000100382 17.4657V8.8318C0.000263818 8.62281 0.0440112 8.41615 0.128549 8.22503C0.213086 8.0339 0.336555 7.86251 0.491069 7.7218L7.99041 0.903078C8.26588 0.650753 8.62589 0.510777 8.99945 0.510742C9.37302 0.510707 9.73305 0.650617 10.0086 0.90289L17.5092 7.72189C17.6637 7.86263 17.7871 8.03403 17.8717 8.22515C17.9562 8.41627 17.9999 8.62292 18.0001 8.83189Z" fill="#10B981"/>
</svg>
