<svg width="18" height="18" viewBox="0 0 18 18" fill="none" xmlns="http://www.w3.org/2000/svg">
<path d="M4 18.0002H1C0.45 18.0002 0 17.5502 0 17.0002V5.69018C0 5.27018 0.25 4.90018 0.64 4.75018L11.64 0.520183C11.7921 0.461504 11.9561 0.440881 12.118 0.460108C12.2798 0.479334 12.4345 0.537829 12.5686 0.630498C12.7027 0.723167 12.8121 0.847203 12.8873 0.991808C12.9624 1.13641 13.0012 1.2972 13 1.46018V7.00018H5C4.45 7.00018 4 7.45018 4 8.00018V18.0002ZM14 9.00018H7C6.45 9.00018 6 9.45018 6 10.0002V17.0002C6 17.5502 6.45 18.0002 7 18.0002H11V14.0002C11 13.4502 11.45 13.0002 12 13.0002C12.55 13.0002 13 13.4502 13 14.0002V18.0002H17C17.55 18.0002 18 17.5502 18 17.0002V9.00018C18 7.90018 17.1 7.00018 16 7.00018C14.9 7.00018 14 7.90018 14 9.00018Z" fill="#888B97"/>
</svg>
